<svg xmlns="http://www.w3.org/2000/svg" viewBox="0 0 720 210" font-family="Inter, -apple-system, sans-serif">
  <defs>
    <linearGradient id="cwSSGrad" gradientTransform="rotate(110)">
      <stop offset="0%" style="stop-color:#ED458E"/>
      <stop offset="100%" style="stop-color:#F48020"/>
    </linearGradient>
    <filter id="cwShadow">
      <feDropShadow dx="0" dy="1" stdDeviation="3" flood-color="#000" flood-opacity="0.25"/>
    </filter>
  </defs>

  <!-- Background -->
  <rect width="720" height="210" rx="16" fill="#1a1b1e"/>
  <rect width="720" height="4" fill="url(#cwSSGrad)"/>

  <!-- Title -->
  <text x="360" y="30" text-anchor="middle" fill="url(#cwSSGrad)" font-size="16" font-weight="800" letter-spacing="-0.02em">Work Item Lifecycle</text>

  <!-- Steps as gradient-fading boxes from pink to orange -->
  <rect x="15" y="55" width="88" height="72" rx="10" fill="#ED458E" filter="url(#cwShadow)"/>
  <text x="59" y="83" text-anchor="middle" fill="white" font-size="9" font-weight="700">CREATE</text>
  <text x="59" y="96" text-anchor="middle" fill="white" font-size="9" font-weight="700">ISSUE</text>
  <text x="59" y="114" text-anchor="middle" fill="#ffcce0" font-size="7">in Plane</text>

  <line x1="106" y1="91" x2="118" y2="91" stroke="#909296" stroke-width="1.5"/>

  <rect x="121" y="55" width="88" height="72" rx="10" fill="#d94080" filter="url(#cwShadow)"/>
  <text x="165" y="83" text-anchor="middle" fill="white" font-size="9" font-weight="700">ASSIGN TO</text>
  <text x="165" y="96" text-anchor="middle" fill="white" font-size="9" font-weight="700">MODULE</text>
  <text x="165" y="114" text-anchor="middle" fill="#ffd0e0" font-size="7">+ priority</text>

  <line x1="212" y1="91" x2="224" y2="91" stroke="#909296" stroke-width="1.5"/>

  <rect x="227" y="55" width="88" height="72" rx="10" fill="#c83868" filter="url(#cwShadow)"/>
  <text x="271" y="83" text-anchor="middle" fill="white" font-size="9" font-weight="700">AGENT</text>
  <text x="271" y="96" text-anchor="middle" fill="white" font-size="9" font-weight="700">PICKS UP</text>
  <text x="271" y="114" text-anchor="middle" fill="#ffd0e0" font-size="7">worktree</text>

  <line x1="318" y1="91" x2="330" y2="91" stroke="#909296" stroke-width="1.5"/>

  <rect x="333" y="55" width="88" height="72" rx="10" fill="#E06040" filter="url(#cwShadow)"/>
  <text x="377" y="83" text-anchor="middle" fill="white" font-size="9" font-weight="700">IMPLEMENT</text>
  <text x="377" y="96" text-anchor="middle" fill="white" font-size="9" font-weight="700">+ TEST</text>
  <text x="377" y="114" text-anchor="middle" fill="#ffd0c0" font-size="7">spec-first</text>

  <line x1="424" y1="91" x2="436" y2="91" stroke="#909296" stroke-width="1.5"/>

  <rect x="439" y="55" width="88" height="72" rx="10" fill="#E87030" filter="url(#cwShadow)"/>
  <text x="483" y="83" text-anchor="middle" fill="white" font-size="9" font-weight="700">REVIEW</text>
  <text x="483" y="96" text-anchor="middle" fill="white" font-size="9" font-weight="700">+ MERGE</text>
  <text x="483" y="114" text-anchor="middle" fill="#ffe0c0" font-size="7">PR → main</text>

  <line x1="530" y1="91" x2="542" y2="91" stroke="#909296" stroke-width="1.5"/>

  <rect x="545" y="55" width="88" height="72" rx="10" fill="#F48020" filter="url(#cwShadow)"/>
  <text x="589" y="83" text-anchor="middle" fill="white" font-size="9" font-weight="700">UPDATE</text>
  <text x="589" y="96" text-anchor="middle" fill="white" font-size="9" font-weight="700">DOCS</text>
  <text x="589" y="114" text-anchor="middle" fill="#ffe0c0" font-size="7">+ roadmap</text>

  <!-- Return arrow -->
  <path d="M 589 130 Q 589 158 360 158 Q 59 158 59 130" stroke="#373a40" stroke-width="1" fill="none" stroke-dasharray="4,3"/>
  <text x="360" y="174" text-anchor="middle" fill="#909296" font-size="8">Next issue in module</text>

  <!-- Bottom labels -->
  <text x="170" y="198" text-anchor="middle" fill="#909296" font-size="9" font-style="italic">Plane is the source of truth</text>
  <text x="530" y="198" text-anchor="middle" fill="#909296" font-size="9" font-style="italic">Docs are the public record</text>

  <rect y="206" width="720" height="4" fill="url(#cwSSGrad)" rx="2"/>
</svg>
